<svg fill="none" height="100%" width="100%" viewBox="0 0 1200 1200" xmlns:xlink="http://www.w3.org/1999/xlink" xmlns="http://www.w3.org/2000/svg"><defs><clipPath id="i0"><rect height="842" width="596" y="0" x="0" /></clipPath><g id="i1"><g transform="matrix(1,0,0,1,80.931,71.786)" display="none" id="i2"><animate repeatCount="indefinite" begin="0s" calcMode="discrete" dur="6.5s" values="none; inline; inline" keyTimes="0; 0.01; 1" attributeName="display" /><g id="i3" transform="matrix(1,0,0,1,216.467,306.016)"><path fill="#b6aace" d="M197.958,-218.216C177.575,-217.893,156.813,-214.15,135.783,-207.983C124.349,-217.325,111.946,-224.901,98.938,-230.698C96.26,-251.105,91.661,-270.594,85.975,-287.255C84.763,-290.805,80.979,-292.49,77.62,-290.969C53.379,-279.987,30.863,-263.407,9.424,-243.341C-24.425,-238.66,-57.107,-223.412,-83.297,-197.561C-110.783,-170.432,-135.462,-132.75,-158.744,-82.365C-185.591,-19.797,-204.444,146.327,-202.941,258.378C-202.484,292.49,136.647,289.567,130.408,264.566C124.103,239.297,119.737,194.954,126.447,135.095C133.687,70.514,163.733,17.809,168.658,10.444C197.587,-32.812,203.776,-86.826,187.137,-134.712C196.604,-160.854,202.253,-188.088,204.143,-211.482C204.444,-215.221,201.645,-218.275,197.958,-218.216Z" /></g><g id="i4" transform="matrix(1,0,0,1,217.218,306.017)"><path stroke-miterlimit="10" stroke-width="5.41" stroke="#012f60" fill="#b6aace" d="M197.207,-218.217C176.824,-217.894,156.062,-214.151,135.032,-207.984C123.598,-217.326,111.195,-224.902,98.187,-230.699C95.509,-251.106,90.91,-270.596,85.224,-287.257C84.012,-290.807,80.228,-292.492,76.869,-290.971C52.628,-279.989,30.112,-263.408,8.673,-243.342C-25.176,-238.661,-57.858,-223.413,-84.048,-197.562C-111.534,-170.433,-203.693,-83.512,-203.692,258.378C-203.692,292.492,135.896,289.566,129.657,264.565C123.352,239.296,118.986,194.953,125.696,135.094C132.936,70.513,162.982,17.808,167.907,10.443C196.836,-32.813,203.025,-86.827,186.386,-134.713C195.853,-160.855,201.502,-188.09,203.392,-211.484C203.693,-215.223,200.894,-218.276,197.207,-218.217Z" /></g><g id="i5" transform="matrix(1,0,0,1,176.054,429.825)"><path fill="#b6aace" d="M-128.612,147.502C-128.612,147.502,-130.157,136.827,-130.217,132.424C-131.025,73.273,-127.928,7.962,-109.854,-57.659C-91.906,-122.827,-23.473,-161.499,42.996,-144.04C109.464,-126.58,131.025,-60.694,117.682,5.569C106.552,60.838,110.296,106.353,113.311,147.92C113.49,150.384,112.433,149.388,113.06,151.753C115.033,159.204,-93.548,161.499,-128.612,147.502Z" /></g><g id="i6" transform="matrix(1,0,0,1,357.722,104.998)"><path stroke-linejoin="round" stroke-linecap="round" stroke-width="5.41" stroke="#012f60" d="M-8.346,-9.114C-3.996,-5.47,5.354,3.33,8.346,9.114" /></g><g id="i7" transform="matrix(1,0,0,1,340.925,444.67)"><path stroke-linejoin="round" stroke-linecap="round" stroke-width="5.41" stroke="#012f60" fill="#b6aace" d="M14.122,-60.339C11.571,-42.836,20.666,-7.897,31.692,22.797C35.963,34.685,21.182,60.338,-2.781,35.497C-18.015,19.707,-29.772,-12.688,-35.963,-33.344" /></g></g><g opacity="0" display="none" id="i8"><animate repeatCount="indefinite" begin="0s" calcMode="discrete" dur="6.5s" values="none; inline; inline" keyTimes="0; 0.01; 1" attributeName="display" /><animate repeatCount="indefinite" attributeName="opacity" dur="6.5s" begin="0s" fill="freeze" values="0; 0; 1; 1; 0; 0" keyTimes="0; 0.184615; 0.189744; 0.25641; 0.266667; 1" keySplines="0 0 1 1; 0 0 1 1; 0 0 1 1; 0 0 1 1; 0 0 1 1" calcMode="spline" /><g transform="translate(518.921,374.944) scale(1,1) translate(-27.748,-31.141)"><g id="i5" transform="matrix(1,0,0,1,27.748,28.803)"><path stroke-linejoin="round" stroke-linecap="round" stroke-width="5.41" stroke="#012f60" fill="#ffc300" d="M14.223,4.346C14.223,4.346,-4.935,-1.882,-14.223,-4.346" /></g><g id="i6" transform="matrix(1,0,0,1,12.186,51.297)"><path stroke-linejoin="round" stroke-linecap="round" stroke-width="5.41" stroke="#012f60" fill="#ffc300" d="M8.673,8.279C8.673,8.279,-8.673,-8.279,-8.673,-8.279" /></g><g id="i7" transform="matrix(1,0,0,1,31.161,3.441)"><path stroke-linejoin="round" stroke-linecap="round" stroke-width="5.41" stroke="#012f60" fill="#ffc300" d="M13.358,0.735C13.358,0.735,-13.358,-0.735,-13.358,-0.735" /></g></g></g><g transform="matrix(1.228,0,0,1.228,-292.166,-297.189)" display="none" id="i9"><animate repeatCount="indefinite" begin="0s" calcMode="discrete" dur="6.5s" values="none; inline; inline" keyTimes="0; 0.01; 1" attributeName="display" /><g id="i5" transform="matrix(1,0,0,1,251.392,399.027)"><path d="" /></g><g id="i7" transform="matrix(1,0,0,1,579.243,503.471)"><path stroke-linejoin="round" stroke-linecap="round" stroke-width="6.689" stroke="#012f60" d="M-30.035,-17.365C-1.701,-26.607,27.875,-6.988,28.034,21.607" /></g></g><g transform="matrix(1,0,0,1,204.825,159.516)" display="none" id="i10"><animate repeatCount="indefinite" begin="0s" calcMode="discrete" dur="6.5s" values="none; inline; inline" keyTimes="0; 0.01; 1" attributeName="display" /><g id="i7" transform="matrix(1,0,0,1,218.266,154.663)"><path stroke-miterlimit="10" stroke-width="5.139" stroke="#012f60" fill="#ffffff" d="M51.338,5.116C50.352,14.603,45.301,23.354,40.015,30.507C29.529,44.698,13.57,52.994,-5.249,51.036C-18.767,49.63,-30.518,43.116,-38.787,33.612C-47.832,23.215,-52.709,9.237,-51.17,-5.551C-49.747,-19.221,-42.97,-29.536,-33.291,-37.818C-22.928,-46.685,-9.219,-52.994,5.418,-51.471C20.551,-49.896,33.47,-41.922,41.767,-30.517C48.989,-20.587,52.709,-8.058,51.338,5.116Z" /></g></g><g transform="matrix(1,0,0,1,204.825,159.516)" display="none" id="i11"><animate repeatCount="indefinite" begin="0s" calcMode="discrete" dur="6.5s" values="none; inline; inline" keyTimes="0; 0.01; 1" attributeName="display" /><g id="i6" transform="matrix(1,0,0,1,69.013,69.314)"><path stroke-miterlimit="10" stroke-width="5.41" stroke="#012f60" fill="#ffffff" d="M54.045,5.386C53.006,15.373,47.69,24.585,42.125,32.115C31.086,47.054,14.286,55.789,-5.526,53.728C-19.757,52.247,-32.128,45.39,-40.832,35.385C-50.354,24.439,-55.488,9.725,-53.868,-5.843C-52.371,-20.234,-45.236,-31.093,-35.047,-39.812C-24.138,-49.147,-9.705,-55.789,5.703,-54.186C21.634,-52.528,35.234,-44.134,43.969,-32.126C51.572,-21.674,55.488,-8.483,54.045,5.386Z" /></g></g><g transform="matrix(1,0,0,1,247.118,191.101)" display="none" id="i12"><animate repeatCount="indefinite" begin="0s" calcMode="discrete" dur="6.5s" values="none; inline; inline" keyTimes="0; 0.01; 1" attributeName="display" /><g id="i7" transform="matrix(1,0,0,1,30.112,39.43)"><path fill="#012f60" d="M-2.403,-26.585C-9.096,-20.492,-21.722,-2.537,-26.42,13.882C-29.862,25.914,-20.092,39.18,-5.645,28.539C7.513,18.848,18.368,-3.981,20.542,-8.996C29.862,-30.479,11.432,-39.18,-2.403,-26.585Z" /></g></g><g transform="matrix(1,0,0,1,397.127,278.028)" display="none" id="i13"><animate repeatCount="indefinite" begin="0s" calcMode="discrete" dur="6.5s" values="none; inline; inline" keyTimes="0; 0.01; 1" attributeName="display" /><g id="i7" transform="matrix(1,0,0,1,28.615,37.467)"><path fill="#012f60" d="M-2.282,-25.253C-8.639,-19.465,-20.635,-2.409,-25.096,13.187C-28.366,24.616,-19.085,37.217,-5.361,27.109C7.137,17.904,17.448,-3.781,19.515,-8.545C28.366,-28.952,10.86,-37.217,-2.282,-25.253Z" /></g></g><g display="none" id="i14"><animate repeatCount="indefinite" begin="0s" calcMode="discrete" dur="6.5s" values="none; inline; inline" keyTimes="0; 0.01; 1" attributeName="display" /><g transform="translate(158.188,378.928)"><g transform="rotate(8.278)"><animateTransform repeatCount="indefinite" type="rotate" attributeName="transform" dur="6.5s" begin="0s" calcMode="spline" values="8.278; 8.278; -19.514; 8.278; -19.514; -19.514" keyTimes="0; 0.246154; 0.323077; 0.394872; 0.471795; 1" keySplines="0 0 1 1; 0 0 1 1; 0 0 1 1; 0 0 1 1; 0 0 1 1" fill="freeze" /><g transform="scale(1,1) translate(-60.831,-148.903)"><g id="i15" transform="matrix(1,0,0,1,52.064,84.946)"><path fill="#ac9cce" d="M-31.743,71.421C-40.071,23.072,-38.539,-21.336,-37.236,-48.27C-36.602,-61.339,-25.494,-71.421,-12.422,-70.792C0.649,-70.159,7.237,-58.747,10.101,-45.978C15.947,-19.911,29.373,32.715,40.071,65.028C40.071,65.028,-31.743,71.421,-31.743,71.421Z" /></g><g id="i3" transform="matrix(1,0,0,1,36.173,50.016)"><path fill="#ac9cce" d="M14.594,-1.277C15.222,5.898,9.198,12.286,1.137,12.992C-6.923,13.697,-13.966,8.452,-14.594,1.277C-15.222,-5.898,-9.198,-12.287,-1.137,-12.992C6.923,-13.697,13.966,-8.452,14.594,-1.277Z" /></g><g id="i4" transform="matrix(1,0,0,1,37.229,29.63)"><path fill="#ac9cce" d="M5.508,-0.482C5.745,2.226,3.47,4.637,0.428,4.903C-2.613,5.169,-5.271,3.19,-5.508,0.482C-5.745,-2.226,-3.471,-4.637,-0.43,-4.903C2.612,-5.169,5.271,-3.19,5.508,-0.482Z" /></g><g id="i5" transform="matrix(1,0,0,1,24.813,33.794)"><path fill="#ac9cce" d="M4.295,-2.046C5.301,0.065,4.192,2.693,1.82,3.823C-0.551,4.952,-3.289,4.156,-4.295,2.045C-5.301,-0.067,-4.193,-2.694,-1.821,-3.823C0.55,-4.953,3.289,-4.157,4.295,-2.046Z" /></g><g id="i6" transform="matrix(1,0,0,1,49.419,34.637)"><path fill="#ac9cce" d="M4.021,2.54C2.772,4.518,-0.041,4.983,-2.262,3.58C-4.483,2.177,-5.27,-0.564,-4.021,-2.541C-2.772,-4.518,0.041,-4.983,2.262,-3.58C4.483,-2.177,5.27,0.563,4.021,2.54Z" /></g><g id="i7" transform="matrix(1,0,0,1,53.272,84.988)"><path stroke-linejoin="round" stroke-linecap="round" stroke-width="5.41" stroke="#012f60" d="M-31.061,71.378C-35.998,30.186,-39.305,-21.291,-38.001,-48.226C-37.368,-61.294,-26.261,-71.377,-13.188,-70.748C-0.118,-70.115,6.471,-58.703,9.334,-45.934C15.181,-19.866,21.755,20.657,39.305,47.378" /></g></g></g></g></g><g display="none" id="i16"><animate repeatCount="indefinite" begin="0s" calcMode="discrete" dur="6.5s" values="none; inline; inline" keyTimes="0; 0.01; 1" attributeName="display" /><g transform="translate(341.5,287.75) rotate(33.597)"><g transform="scale(0.989,0.989)"><animateTransform repeatCount="indefinite" type="scale" attributeName="transform" dur="6.5s" begin="0s" calcMode="spline" values="0.989 0.989; 0.989 0.989; 0.989 0.499; 0.989 0.947; 0.989 0.466; 0.989 0.922; 0.989 0.533; 0.989 0.854; 0.989 0.854" keyTimes="0; 0.010256; 0.087179; 0.164102; 0.241025; 0.317949; 0.4; 0.476923; 1" keySplines="0 0 1 1; 0 0 1 1; 0 0 1 1; 0 0 1 1; 0 0 1 1; 0 0 1 1; 0 0 1 1; 0 0 1 1" fill="freeze" /><g transform="translate(-283.596,-419.231)"><g id="i5" transform="matrix(1,0,0,1,251.392,399.027)"><path fill="#ff6470" d="M0.037,0.1C0.024,0.02,0.003,-0.049,-0.036,-0.1C-0.011,-0.031,0.013,0.033,0.037,0.1Z" /></g><g id="i6" transform="matrix(1,0,0,1,283.761,436.377)"><path fill="#ff6470" d="M13.134,-8.083C13.104,-8.598,7.608,-10.881,7.143,-11.18C2.229,-14.339,1.23,-16.771,-0.183,-20.66C-0.022,-19.698,-1.592,-16.816,-1.894,-16.235C-2.703,-14.678,-3.746,-13.28,-4.955,-12.002C-6.523,-10.346,-13.28,-10.401,-13.28,-10.401C-14.779,18.638,14.779,20.66,13.134,-8.083Z" /></g><g id="i7" transform="matrix(1,0,0,1,579.243,503.471)"><path d="" /></g></g></g></g></g><g transform="matrix(1,0,0,1,310.86,267.774)" display="none" id="i17"><animate repeatCount="indefinite" begin="0s" calcMode="discrete" dur="6.5s" values="none; inline; inline" keyTimes="0; 0.01; 1" attributeName="display" /><g id="i7" transform="matrix(1,0,0,1,29.098,23.325)"><path stroke-linejoin="round" stroke-linecap="round" stroke-width="5.177" stroke="#012f60" d="M-16.155,-10.383C-10.929,1.146,2.572,-4.645,3.589,-6.835C1.553,2.362,8.89,10.383,16.155,9.755" /></g></g></g><g id="i18"><g display="none" id="i19"><animate repeatCount="indefinite" begin="0s" calcMode="discrete" dur="6.5s" values="none; inline; inline" keyTimes="0; 0.01; 1" attributeName="display" /><g transform="translate(326,999)"><animateTransform repeatCount="indefinite" type="translate" attributeName="transform" dur="6.5s" begin="0s" calcMode="spline" values="326 999; 326 999; 325.017 977.446; 324.015 955.492; 323.014 933.53; 322.012 911.565; 321.008 889.56; 320.002 867.504; 319.005 845.645; 318.006 823.754; 317.004 801.771; 316.001 779.786; 315.002 757.9; 314.001 735.943; 313 714; 311.999 692.057; 310.998 670.1; 309.999 648.214; 308.996 626.229; 307.994 604.246; 306.995 582.355; 305.998 560.496; 304.992 538.44; 303.988 516.435; 302.986 494.47; 301.985 472.508; 300.983 450.554; 300 429; 299.975 428.918; 299.949 428.836; 299.924 428.754; 299.899 428.673; 299.873 428.591; 299.848 428.509; 299.823 428.427; 299.797 428.345; 299.772 428.263; 299.747 428.181; 299.721 428.1; 299.696 428.018; 299.671 427.936; 299.645 427.854; 299.62 427.772; 299.595 427.69; 299.569 427.608; 299.544 427.527; 299.519 427.445; 299.493 427.363; 299.468 427.281; 299.443 427.199; 299.417 427.117; 299.392 427.035; 299.367 426.954; 299.341 426.872; 299.316 426.79; 299.291 426.708; 299.265 426.626; 299.24 426.544; 299.215 426.462; 299.189 426.381; 299.164 426.299; 299.139 426.217; 299.113 426.135; 299.088 426.053; 299.063 425.971; 299.037 425.889; 299.012 425.808; 298.987 425.726; 298.961 425.644; 298.936 425.562; 298.911 425.48; 298.885 425.398; 298.86 425.316; 298.835 425.235; 298.809 425.153; 298.784 425.071; 298.759 424.989; 298.733 424.907; 298.708 424.825; 298.683 424.743; 298.657 424.662; 298.632 424.58; 298.607 424.498; 298.581 424.416; 298.556 424.334; 298.531 424.252; 298.505 424.17; 298.48 424.089; 298.455 424.007; 298.429 423.925; 298.404 423.843; 298.379 423.761; 298.353 423.679; 298.328 423.597; 298.303 423.516; 298.277 423.434; 298.252 423.352; 298.227 423.27; 298.201 423.188; 298.176 423.106; 298.151 423.024; 298.125 422.943; 298.1 422.861; 298.075 422.779; 298.049 422.697; 298.024 422.615; 297.998 422.533; 297.973 422.451; 297.948 422.37; 297.922 422.288; 297.897 422.206; 297.872 422.124; 297.846 422.042; 297.821 421.96; 297.796 421.878; 297.77 421.797; 297.745 421.715; 297.72 421.633; 297.694 421.551; 297.669 421.469; 297.644 421.387; 297.618 421.305; 297.593 421.224; 297.568 421.142; 297.542 421.06; 297.517 420.978; 297.492 420.896; 297.466 420.814; 297.441 420.732; 297.416 420.651; 297.39 420.569; 297.39 420.569" keyTimes="0; 0.010256; 0.015385; 0.020513; 0.025641; 0.030769; 0.035898; 0.041026; 0.046154; 0.051282; 0.05641; 0.061538; 0.066667; 0.071795; 0.076923; 0.082051; 0.087179; 0.092308; 0.097436; 0.102564; 0.107692; 0.112821; 0.117949; 0.123077; 0.128205; 0.133334; 0.138461; 0.14359; 0.148718; 0.153846; 0.158974; 0.164103; 0.169231; 0.174359; 0.179487; 0.184616; 0.189744; 0.194872; 0.2; 0.205128; 0.210257; 0.215385; 0.220513; 0.225641; 0.230769; 0.235897; 0.241026; 0.246154; 0.251282; 0.25641; 0.261539; 0.266667; 0.271795; 0.276923; 0.282052; 0.28718; 0.292308; 0.297436; 0.302564; 0.307692; 0.31282; 0.317949; 0.323077; 0.328205; 0.333333; 0.338462; 0.34359; 0.348718; 0.353846; 0.358975; 0.364103; 0.369231; 0.374359; 0.379488; 0.384615; 0.389743; 0.394872; 0.4; 0.405128; 0.410256; 0.415385; 0.420513; 0.425641; 0.430769; 0.435898; 0.441026; 0.446154; 0.451282; 0.456411; 0.461539; 0.466666; 0.471795; 0.476923; 0.482051; 0.487179; 0.492308; 0.497436; 0.502564; 0.507692; 0.512821; 0.517949; 0.523077; 0.528205; 0.533334; 0.538462; 0.54359; 0.548718; 0.553846; 0.558974; 0.564102; 0.569231; 0.574359; 0.579487; 0.584615; 0.589744; 0.594872; 0.6; 0.605128; 0.610257; 0.615385; 0.620513; 0.625641; 0.630769; 0.635897; 0.641025; 0.646154; 0.651282; 0.65641; 0.661538; 0.666667; 0.671795; 1" keySplines="0 0 1 1; 0 0 1 1; 0 0 1 1; 0 0 1 1; 0 0 1 1; 0 0 1 1; 0 0 1 1; 0 0 1 1; 0 0 1 1; 0 0 1 1; 0 0 1 1; 0 0 1 1; 0 0 1 1; 0 0 1 1; 0 0 1 1; 0 0 1 1; 0 0 1 1; 0 0 1 1; 0 0 1 1; 0 0 1 1; 0 0 1 1; 0 0 1 1; 0 0 1 1; 0 0 1 1; 0 0 1 1; 0 0 1 1; 0 0 1 1; 0 0 1 1; 0 0 1 1; 0 0 1 1; 0 0 1 1; 0 0 1 1; 0 0 1 1; 0 0 1 1; 0 0 1 1; 0 0 1 1; 0 0 1 1; 0 0 1 1; 0 0 1 1; 0 0 1 1; 0 0 1 1; 0 0 1 1; 0 0 1 1; 0 0 1 1; 0 0 1 1; 0 0 1 1; 0 0 1 1; 0 0 1 1; 0 0 1 1; 0 0 1 1; 0 0 1 1; 0 0 1 1; 0 0 1 1; 0 0 1 1; 0 0 1 1; 0 0 1 1; 0 0 1 1; 0 0 1 1; 0 0 1 1; 0 0 1 1; 0 0 1 1; 0 0 1 1; 0 0 1 1; 0 0 1 1; 0 0 1 1; 0 0 1 1; 0 0 1 1; 0 0 1 1; 0 0 1 1; 0 0 1 1; 0 0 1 1; 0 0 1 1; 0 0 1 1; 0 0 1 1; 0 0 1 1; 0 0 1 1; 0 0 1 1; 0 0 1 1; 0 0 1 1; 0 0 1 1; 0 0 1 1; 0 0 1 1; 0 0 1 1; 0 0 1 1; 0 0 1 1; 0 0 1 1; 0 0 1 1; 0 0 1 1; 0 0 1 1; 0 0 1 1; 0 0 1 1; 0 0 1 1; 0 0 1 1; 0 0 1 1; 0 0 1 1; 0 0 1 1; 0 0 1 1; 0 0 1 1; 0 0 1 1; 0 0 1 1; 0 0 1 1; 0 0 1 1; 0 0 1 1; 0 0 1 1; 0 0 1 1; 0 0 1 1; 0 0 1 1; 0 0 1 1; 0 0 1 1; 0 0 1 1; 0 0 1 1; 0 0 1 1; 0 0 1 1; 0 0 1 1; 0 0 1 1; 0 0 1 1; 0 0 1 1; 0 0 1 1; 0 0 1 1; 0 0 1 1; 0 0 1 1; 0 0 1 1; 0 0 1 1; 0 0 1 1; 0 0 1 1; 0 0 1 1; 0 0 1 1; 0 0 1 1; 0 0 1 1; 0 0 1 1; 0 0 1 1" fill="freeze" /><g transform="rotate(-29.25)"><animateTransform repeatCount="indefinite" type="rotate" attributeName="transform" dur="6.5s" begin="0s" calcMode="spline" values="-29.25; -29.25; -0.083; -0.083" keyTimes="0; 0.010256; 0.14359; 1" keySplines="0 0 1 1; 0 0 1 1; 0 0 1 1" fill="freeze" /><g transform="scale(1,1) translate(-298,-421)"><g clip-path="url(#i0)"><g transform="matrix(1,0,0,1,80.931,71.786)" display="none"><animate repeatCount="indefinite" begin="0s" calcMode="discrete" dur="6.5s" values="none; inline; inline" keyTimes="0; 0.01; 1" attributeName="display" /><g transform="matrix(1,0,0,1,216.467,306.016)"><path fill="#b6aace" d="M197.958,-218.216C177.575,-217.893,156.813,-214.15,135.783,-207.983C124.349,-217.325,111.946,-224.901,98.938,-230.698C96.26,-251.105,91.661,-270.594,85.975,-287.255C84.763,-290.805,80.979,-292.49,77.62,-290.969C53.379,-279.987,30.863,-263.407,9.424,-243.341C-24.425,-238.66,-57.107,-223.412,-83.297,-197.561C-110.783,-170.432,-135.462,-132.75,-158.744,-82.365C-185.591,-19.797,-204.444,146.327,-202.941,258.378C-202.484,292.49,136.647,289.567,130.408,264.566C124.103,239.297,119.737,194.954,126.447,135.095C133.687,70.514,163.733,17.809,168.658,10.444C197.587,-32.812,203.776,-86.826,187.137,-134.712C196.604,-160.854,202.253,-188.088,204.143,-211.482C204.444,-215.221,201.645,-218.275,197.958,-218.216Z" /></g><g transform="matrix(1,0,0,1,217.218,306.017)"><path stroke-miterlimit="10" stroke-width="5.41" stroke="#012f60" fill="#b6aace" d="M197.207,-218.217C176.824,-217.894,156.062,-214.151,135.032,-207.984C123.598,-217.326,111.195,-224.902,98.187,-230.699C95.509,-251.106,90.91,-270.596,85.224,-287.257C84.012,-290.807,80.228,-292.492,76.869,-290.971C52.628,-279.989,30.112,-263.408,8.673,-243.342C-25.176,-238.661,-57.858,-223.413,-84.048,-197.562C-111.534,-170.433,-203.693,-83.512,-203.692,258.378C-203.692,292.492,135.896,289.566,129.657,264.565C123.352,239.296,118.986,194.953,125.696,135.094C132.936,70.513,162.982,17.808,167.907,10.443C196.836,-32.813,203.025,-86.827,186.386,-134.713C195.853,-160.855,201.502,-188.09,203.392,-211.484C203.693,-215.223,200.894,-218.276,197.207,-218.217Z" /></g><g transform="matrix(1,0,0,1,176.054,429.825)"><path fill="#b6aace" d="M-128.612,147.502C-128.612,147.502,-130.157,136.827,-130.217,132.424C-131.025,73.273,-127.928,7.962,-109.854,-57.659C-91.906,-122.827,-23.473,-161.499,42.996,-144.04C109.464,-126.58,131.025,-60.694,117.682,5.569C106.552,60.838,110.296,106.353,113.311,147.92C113.49,150.384,112.433,149.388,113.06,151.753C115.033,159.204,-93.548,161.499,-128.612,147.502Z" /></g><g transform="matrix(1,0,0,1,357.722,104.998)"><path stroke-linejoin="round" stroke-linecap="round" stroke-width="5.41" stroke="#012f60" d="M-8.346,-9.114C-3.996,-5.47,5.354,3.33,8.346,9.114" /></g><g transform="matrix(1,0,0,1,340.925,444.67)"><path stroke-linejoin="round" stroke-linecap="round" stroke-width="5.41" stroke="#012f60" fill="#b6aace" d="M14.122,-60.339C11.571,-42.836,20.666,-7.897,31.692,22.797C35.963,34.685,21.182,60.338,-2.781,35.497C-18.015,19.707,-29.772,-12.688,-35.963,-33.344" /></g></g><g opacity="0" display="none"><animate repeatCount="indefinite" begin="0s" calcMode="discrete" dur="6.5s" values="none; inline; inline" keyTimes="0; 0.01; 1" attributeName="display" /><animate repeatCount="indefinite" attributeName="opacity" dur="6.5s" begin="0s" fill="freeze" values="0; 0; 1; 1; 0; 0" keyTimes="0; 0.184615; 0.189744; 0.25641; 0.266667; 1" keySplines="0 0 1 1; 0 0 1 1; 0 0 1 1; 0 0 1 1; 0 0 1 1" calcMode="spline" /><g transform="translate(518.921,374.944) scale(1,1) translate(-27.748,-31.141)"><g transform="matrix(1,0,0,1,27.748,28.803)"><path stroke-linejoin="round" stroke-linecap="round" stroke-width="5.41" stroke="#012f60" fill="#ffc300" d="M14.223,4.346C14.223,4.346,-4.935,-1.882,-14.223,-4.346" /></g><g transform="matrix(1,0,0,1,12.186,51.297)"><path stroke-linejoin="round" stroke-linecap="round" stroke-width="5.41" stroke="#012f60" fill="#ffc300" d="M8.673,8.279C8.673,8.279,-8.673,-8.279,-8.673,-8.279" /></g><g transform="matrix(1,0,0,1,31.161,3.441)"><path stroke-linejoin="round" stroke-linecap="round" stroke-width="5.41" stroke="#012f60" fill="#ffc300" d="M13.358,0.735C13.358,0.735,-13.358,-0.735,-13.358,-0.735" /></g></g></g><g transform="matrix(1.228,0,0,1.228,-292.166,-297.189)" display="none"><animate repeatCount="indefinite" begin="0s" calcMode="discrete" dur="6.5s" values="none; inline; inline" keyTimes="0; 0.01; 1" attributeName="display" /><g transform="matrix(1,0,0,1,251.392,399.027)"><path d="" /></g><g transform="matrix(1,0,0,1,579.243,503.471)"><path stroke-linejoin="round" stroke-linecap="round" stroke-width="6.689" stroke="#012f60" d="M-30.035,-17.365C-1.701,-26.607,27.875,-6.988,28.034,21.607" /></g></g><g transform="matrix(1,0,0,1,204.825,159.516)" display="none"><animate repeatCount="indefinite" begin="0s" calcMode="discrete" dur="6.5s" values="none; inline; inline" keyTimes="0; 0.01; 1" attributeName="display" /><g transform="matrix(1,0,0,1,218.266,154.663)"><path stroke-miterlimit="10" stroke-width="5.139" stroke="#012f60" fill="#ffffff" d="M51.338,5.116C50.352,14.603,45.301,23.354,40.015,30.507C29.529,44.698,13.57,52.994,-5.249,51.036C-18.767,49.63,-30.518,43.116,-38.787,33.612C-47.832,23.215,-52.709,9.237,-51.17,-5.551C-49.747,-19.221,-42.97,-29.536,-33.291,-37.818C-22.928,-46.685,-9.219,-52.994,5.418,-51.471C20.551,-49.896,33.47,-41.922,41.767,-30.517C48.989,-20.587,52.709,-8.058,51.338,5.116Z" /></g></g><g transform="matrix(1,0,0,1,204.825,159.516)" display="none"><animate repeatCount="indefinite" begin="0s" calcMode="discrete" dur="6.5s" values="none; inline; inline" keyTimes="0; 0.01; 1" attributeName="display" /><g transform="matrix(1,0,0,1,69.013,69.314)"><path stroke-miterlimit="10" stroke-width="5.41" stroke="#012f60" fill="#ffffff" d="M54.045,5.386C53.006,15.373,47.69,24.585,42.125,32.115C31.086,47.054,14.286,55.789,-5.526,53.728C-19.757,52.247,-32.128,45.39,-40.832,35.385C-50.354,24.439,-55.488,9.725,-53.868,-5.843C-52.371,-20.234,-45.236,-31.093,-35.047,-39.812C-24.138,-49.147,-9.705,-55.789,5.703,-54.186C21.634,-52.528,35.234,-44.134,43.969,-32.126C51.572,-21.674,55.488,-8.483,54.045,5.386Z" /></g></g><g transform="matrix(1,0,0,1,247.118,191.101)" display="none"><animate repeatCount="indefinite" begin="0s" calcMode="discrete" dur="6.5s" values="none; inline; inline" keyTimes="0; 0.01; 1" attributeName="display" /><g transform="matrix(1,0,0,1,30.112,39.43)"><path fill="#012f60" d="M-2.403,-26.585C-9.096,-20.492,-21.722,-2.537,-26.42,13.882C-29.862,25.914,-20.092,39.18,-5.645,28.539C7.513,18.848,18.368,-3.981,20.542,-8.996C29.862,-30.479,11.432,-39.18,-2.403,-26.585Z" /></g></g><g transform="matrix(1,0,0,1,397.127,278.028)" display="none"><animate repeatCount="indefinite" begin="0s" calcMode="discrete" dur="6.5s" values="none; inline; inline" keyTimes="0; 0.01; 1" attributeName="display" /><g transform="matrix(1,0,0,1,28.615,37.467)"><path fill="#012f60" d="M-2.282,-25.253C-8.639,-19.465,-20.635,-2.409,-25.096,13.187C-28.366,24.616,-19.085,37.217,-5.361,27.109C7.137,17.904,17.448,-3.781,19.515,-8.545C28.366,-28.952,10.86,-37.217,-2.282,-25.253Z" /></g></g><g display="none"><animate repeatCount="indefinite" begin="0s" calcMode="discrete" dur="6.5s" values="none; inline; inline" keyTimes="0; 0.01; 1" attributeName="display" /><g transform="translate(158.188,378.928)"><g transform="rotate(8.278)"><animateTransform repeatCount="indefinite" type="rotate" attributeName="transform" dur="6.5s" begin="0s" calcMode="spline" values="8.278; 8.278; -19.514; 8.278; -19.514; -19.514" keyTimes="0; 0.246154; 0.323077; 0.394872; 0.471795; 1" keySplines="0 0 1 1; 0 0 1 1; 0 0 1 1; 0 0 1 1; 0 0 1 1" fill="freeze" /><g transform="scale(1,1) translate(-60.831,-148.903)"><g transform="matrix(1,0,0,1,52.064,84.946)"><path fill="#ac9cce" d="M-31.743,71.421C-40.071,23.072,-38.539,-21.336,-37.236,-48.27C-36.602,-61.339,-25.494,-71.421,-12.422,-70.792C0.649,-70.159,7.237,-58.747,10.101,-45.978C15.947,-19.911,29.373,32.715,40.071,65.028C40.071,65.028,-31.743,71.421,-31.743,71.421Z" /></g><g transform="matrix(1,0,0,1,36.173,50.016)"><path fill="#ac9cce" d="M14.594,-1.277C15.222,5.898,9.198,12.286,1.137,12.992C-6.923,13.697,-13.966,8.452,-14.594,1.277C-15.222,-5.898,-9.198,-12.287,-1.137,-12.992C6.923,-13.697,13.966,-8.452,14.594,-1.277Z" /></g><g transform="matrix(1,0,0,1,37.229,29.63)"><path fill="#ac9cce" d="M5.508,-0.482C5.745,2.226,3.47,4.637,0.428,4.903C-2.613,5.169,-5.271,3.19,-5.508,0.482C-5.745,-2.226,-3.471,-4.637,-0.43,-4.903C2.612,-5.169,5.271,-3.19,5.508,-0.482Z" /></g><g transform="matrix(1,0,0,1,24.813,33.794)"><path fill="#ac9cce" d="M4.295,-2.046C5.301,0.065,4.192,2.693,1.82,3.823C-0.551,4.952,-3.289,4.156,-4.295,2.045C-5.301,-0.067,-4.193,-2.694,-1.821,-3.823C0.55,-4.953,3.289,-4.157,4.295,-2.046Z" /></g><g transform="matrix(1,0,0,1,49.419,34.637)"><path fill="#ac9cce" d="M4.021,2.54C2.772,4.518,-0.041,4.983,-2.262,3.58C-4.483,2.177,-5.27,-0.564,-4.021,-2.541C-2.772,-4.518,0.041,-4.983,2.262,-3.58C4.483,-2.177,5.27,0.563,4.021,2.54Z" /></g><g transform="matrix(1,0,0,1,53.272,84.988)"><path stroke-linejoin="round" stroke-linecap="round" stroke-width="5.41" stroke="#012f60" d="M-31.061,71.378C-35.998,30.186,-39.305,-21.291,-38.001,-48.226C-37.368,-61.294,-26.261,-71.377,-13.188,-70.748C-0.118,-70.115,6.471,-58.703,9.334,-45.934C15.181,-19.866,21.755,20.657,39.305,47.378" /></g></g></g></g></g><g display="none"><animate repeatCount="indefinite" begin="0s" calcMode="discrete" dur="6.5s" values="none; inline; inline" keyTimes="0; 0.01; 1" attributeName="display" /><g transform="translate(341.5,287.75) rotate(33.597)"><g transform="scale(0.989,0.989)"><animateTransform repeatCount="indefinite" type="scale" attributeName="transform" dur="6.5s" begin="0s" calcMode="spline" values="0.989 0.989; 0.989 0.989; 0.989 0.499; 0.989 0.947; 0.989 0.466; 0.989 0.922; 0.989 0.533; 0.989 0.854; 0.989 0.854" keyTimes="0; 0.010256; 0.087179; 0.164102; 0.241025; 0.317949; 0.4; 0.476923; 1" keySplines="0 0 1 1; 0 0 1 1; 0 0 1 1; 0 0 1 1; 0 0 1 1; 0 0 1 1; 0 0 1 1; 0 0 1 1" fill="freeze" /><g transform="translate(-283.596,-419.231)"><g transform="matrix(1,0,0,1,251.392,399.027)"><path fill="#ff6470" d="M0.037,0.1C0.024,0.02,0.003,-0.049,-0.036,-0.1C-0.011,-0.031,0.013,0.033,0.037,0.1Z" /></g><g transform="matrix(1,0,0,1,283.761,436.377)"><path fill="#ff6470" d="M13.134,-8.083C13.104,-8.598,7.608,-10.881,7.143,-11.18C2.229,-14.339,1.23,-16.771,-0.183,-20.66C-0.022,-19.698,-1.592,-16.816,-1.894,-16.235C-2.703,-14.678,-3.746,-13.28,-4.955,-12.002C-6.523,-10.346,-13.28,-10.401,-13.28,-10.401C-14.779,18.638,14.779,20.66,13.134,-8.083Z" /></g><g transform="matrix(1,0,0,1,579.243,503.471)"><path d="" /></g></g></g></g></g><g transform="matrix(1,0,0,1,310.86,267.774)" display="none"><animate repeatCount="indefinite" begin="0s" calcMode="discrete" dur="6.5s" values="none; inline; inline" keyTimes="0; 0.01; 1" attributeName="display" /><g transform="matrix(1,0,0,1,29.098,23.325)"><path stroke-linejoin="round" stroke-linecap="round" stroke-width="5.177" stroke="#012f60" d="M-16.155,-10.383C-10.929,1.146,2.572,-4.645,3.589,-6.835C1.553,2.362,8.89,10.383,16.155,9.755" /></g></g></g></g></g></g></g></g><clipPath id="i20"><path d="M266.852,52C-46.212,52,-70,213.743,-70,387.359C-70,560.975,-34,663,267.852,659.719C587.993,656.239,663.703,554.975,663.703,381.359C663.703,207.743,579.915,52,266.852,52Z" /></clipPath></defs><g transform="matrix(1.562,0,0,1.54,246.294,1036.683)" display="none" id="i21"><animate repeatCount="indefinite" begin="0s" calcMode="discrete" dur="6.5s" values="none; inline; inline" keyTimes="0; 0.004872; 1" attributeName="display" /><g id="i7" transform="matrix(1,0,0,1,214.906,36.725)"><path fill="#012f60" d="M214.657,0C214.657,-20.145,118.551,-36.475,-0.001,-36.475C-118.552,-36.475,-214.656,-20.145,-214.656,0C-214.656,20.145,-118.552,36.475,-0.001,36.475C118.551,36.475,214.657,20.145,214.657,0Z" /></g></g><g clip-path="url(#i20)" transform="matrix(1.499,0,0,1.499,177.336,161.871)" id="i22"><g clip-path="url(#i0)"><g display="none"><animate repeatCount="indefinite" begin="0s" calcMode="discrete" dur="6.5s" values="none; inline; inline" keyTimes="0; 0.01; 1" attributeName="display" /><g transform="translate(326,999)"><animateTransform repeatCount="indefinite" type="translate" attributeName="transform" dur="6.5s" begin="0s" calcMode="spline" values="326 999; 326 999; 325.017 977.446; 324.015 955.492; 323.014 933.53; 322.012 911.565; 321.008 889.56; 320.002 867.504; 319.005 845.645; 318.006 823.754; 317.004 801.771; 316.001 779.786; 315.002 757.9; 314.001 735.943; 313 714; 311.999 692.057; 310.998 670.1; 309.999 648.214; 308.996 626.229; 307.994 604.246; 306.995 582.355; 305.998 560.496; 304.992 538.44; 303.988 516.435; 302.986 494.47; 301.985 472.508; 300.983 450.554; 300 429; 299.975 428.918; 299.949 428.836; 299.924 428.754; 299.899 428.673; 299.873 428.591; 299.848 428.509; 299.823 428.427; 299.797 428.345; 299.772 428.263; 299.747 428.181; 299.721 428.1; 299.696 428.018; 299.671 427.936; 299.645 427.854; 299.62 427.772; 299.595 427.69; 299.569 427.608; 299.544 427.527; 299.519 427.445; 299.493 427.363; 299.468 427.281; 299.443 427.199; 299.417 427.117; 299.392 427.035; 299.367 426.954; 299.341 426.872; 299.316 426.79; 299.291 426.708; 299.265 426.626; 299.24 426.544; 299.215 426.462; 299.189 426.381; 299.164 426.299; 299.139 426.217; 299.113 426.135; 299.088 426.053; 299.063 425.971; 299.037 425.889; 299.012 425.808; 298.987 425.726; 298.961 425.644; 298.936 425.562; 298.911 425.48; 298.885 425.398; 298.86 425.316; 298.835 425.235; 298.809 425.153; 298.784 425.071; 298.759 424.989; 298.733 424.907; 298.708 424.825; 298.683 424.743; 298.657 424.662; 298.632 424.58; 298.607 424.498; 298.581 424.416; 298.556 424.334; 298.531 424.252; 298.505 424.17; 298.48 424.089; 298.455 424.007; 298.429 423.925; 298.404 423.843; 298.379 423.761; 298.353 423.679; 298.328 423.597; 298.303 423.516; 298.277 423.434; 298.252 423.352; 298.227 423.27; 298.201 423.188; 298.176 423.106; 298.151 423.024; 298.125 422.943; 298.1 422.861; 298.075 422.779; 298.049 422.697; 298.024 422.615; 297.998 422.533; 297.973 422.451; 297.948 422.37; 297.922 422.288; 297.897 422.206; 297.872 422.124; 297.846 422.042; 297.821 421.96; 297.796 421.878; 297.77 421.797; 297.745 421.715; 297.72 421.633; 297.694 421.551; 297.669 421.469; 297.644 421.387; 297.618 421.305; 297.593 421.224; 297.568 421.142; 297.542 421.06; 297.517 420.978; 297.492 420.896; 297.466 420.814; 297.441 420.732; 297.416 420.651; 297.39 420.569; 297.39 420.569" keyTimes="0; 0.010256; 0.015385; 0.020513; 0.025641; 0.030769; 0.035898; 0.041026; 0.046154; 0.051282; 0.05641; 0.061538; 0.066667; 0.071795; 0.076923; 0.082051; 0.087179; 0.092308; 0.097436; 0.102564; 0.107692; 0.112821; 0.117949; 0.123077; 0.128205; 0.133334; 0.138461; 0.14359; 0.148718; 0.153846; 0.158974; 0.164103; 0.169231; 0.174359; 0.179487; 0.184616; 0.189744; 0.194872; 0.2; 0.205128; 0.210257; 0.215385; 0.220513; 0.225641; 0.230769; 0.235897; 0.241026; 0.246154; 0.251282; 0.25641; 0.261539; 0.266667; 0.271795; 0.276923; 0.282052; 0.28718; 0.292308; 0.297436; 0.302564; 0.307692; 0.31282; 0.317949; 0.323077; 0.328205; 0.333333; 0.338462; 0.34359; 0.348718; 0.353846; 0.358975; 0.364103; 0.369231; 0.374359; 0.379488; 0.384615; 0.389743; 0.394872; 0.4; 0.405128; 0.410256; 0.415385; 0.420513; 0.425641; 0.430769; 0.435898; 0.441026; 0.446154; 0.451282; 0.456411; 0.461539; 0.466666; 0.471795; 0.476923; 0.482051; 0.487179; 0.492308; 0.497436; 0.502564; 0.507692; 0.512821; 0.517949; 0.523077; 0.528205; 0.533334; 0.538462; 0.54359; 0.548718; 0.553846; 0.558974; 0.564102; 0.569231; 0.574359; 0.579487; 0.584615; 0.589744; 0.594872; 0.6; 0.605128; 0.610257; 0.615385; 0.620513; 0.625641; 0.630769; 0.635897; 0.641025; 0.646154; 0.651282; 0.65641; 0.661538; 0.666667; 0.671795; 1" keySplines="0 0 1 1; 0 0 1 1; 0 0 1 1; 0 0 1 1; 0 0 1 1; 0 0 1 1; 0 0 1 1; 0 0 1 1; 0 0 1 1; 0 0 1 1; 0 0 1 1; 0 0 1 1; 0 0 1 1; 0 0 1 1; 0 0 1 1; 0 0 1 1; 0 0 1 1; 0 0 1 1; 0 0 1 1; 0 0 1 1; 0 0 1 1; 0 0 1 1; 0 0 1 1; 0 0 1 1; 0 0 1 1; 0 0 1 1; 0 0 1 1; 0 0 1 1; 0 0 1 1; 0 0 1 1; 0 0 1 1; 0 0 1 1; 0 0 1 1; 0 0 1 1; 0 0 1 1; 0 0 1 1; 0 0 1 1; 0 0 1 1; 0 0 1 1; 0 0 1 1; 0 0 1 1; 0 0 1 1; 0 0 1 1; 0 0 1 1; 0 0 1 1; 0 0 1 1; 0 0 1 1; 0 0 1 1; 0 0 1 1; 0 0 1 1; 0 0 1 1; 0 0 1 1; 0 0 1 1; 0 0 1 1; 0 0 1 1; 0 0 1 1; 0 0 1 1; 0 0 1 1; 0 0 1 1; 0 0 1 1; 0 0 1 1; 0 0 1 1; 0 0 1 1; 0 0 1 1; 0 0 1 1; 0 0 1 1; 0 0 1 1; 0 0 1 1; 0 0 1 1; 0 0 1 1; 0 0 1 1; 0 0 1 1; 0 0 1 1; 0 0 1 1; 0 0 1 1; 0 0 1 1; 0 0 1 1; 0 0 1 1; 0 0 1 1; 0 0 1 1; 0 0 1 1; 0 0 1 1; 0 0 1 1; 0 0 1 1; 0 0 1 1; 0 0 1 1; 0 0 1 1; 0 0 1 1; 0 0 1 1; 0 0 1 1; 0 0 1 1; 0 0 1 1; 0 0 1 1; 0 0 1 1; 0 0 1 1; 0 0 1 1; 0 0 1 1; 0 0 1 1; 0 0 1 1; 0 0 1 1; 0 0 1 1; 0 0 1 1; 0 0 1 1; 0 0 1 1; 0 0 1 1; 0 0 1 1; 0 0 1 1; 0 0 1 1; 0 0 1 1; 0 0 1 1; 0 0 1 1; 0 0 1 1; 0 0 1 1; 0 0 1 1; 0 0 1 1; 0 0 1 1; 0 0 1 1; 0 0 1 1; 0 0 1 1; 0 0 1 1; 0 0 1 1; 0 0 1 1; 0 0 1 1; 0 0 1 1; 0 0 1 1; 0 0 1 1; 0 0 1 1; 0 0 1 1; 0 0 1 1; 0 0 1 1; 0 0 1 1" fill="freeze" /><g transform="rotate(-29.25)"><animateTransform repeatCount="indefinite" type="rotate" attributeName="transform" dur="6.5s" begin="0s" calcMode="spline" values="-29.25; -29.25; -0.083; -0.083" keyTimes="0; 0.010256; 0.14359; 1" keySplines="0 0 1 1; 0 0 1 1; 0 0 1 1" fill="freeze" /><g transform="scale(1,1) translate(-298,-421)"><g clip-path="url(#i0)"><g transform="matrix(1,0,0,1,80.931,71.786)" display="none"><animate repeatCount="indefinite" begin="0s" calcMode="discrete" dur="6.5s" values="none; inline; inline" keyTimes="0; 0.01; 1" attributeName="display" /><g transform="matrix(1,0,0,1,216.467,306.016)"><path fill="#b6aace" d="M197.958,-218.216C177.575,-217.893,156.813,-214.15,135.783,-207.983C124.349,-217.325,111.946,-224.901,98.938,-230.698C96.26,-251.105,91.661,-270.594,85.975,-287.255C84.763,-290.805,80.979,-292.49,77.62,-290.969C53.379,-279.987,30.863,-263.407,9.424,-243.341C-24.425,-238.66,-57.107,-223.412,-83.297,-197.561C-110.783,-170.432,-135.462,-132.75,-158.744,-82.365C-185.591,-19.797,-204.444,146.327,-202.941,258.378C-202.484,292.49,136.647,289.567,130.408,264.566C124.103,239.297,119.737,194.954,126.447,135.095C133.687,70.514,163.733,17.809,168.658,10.444C197.587,-32.812,203.776,-86.826,187.137,-134.712C196.604,-160.854,202.253,-188.088,204.143,-211.482C204.444,-215.221,201.645,-218.275,197.958,-218.216Z" /></g><g transform="matrix(1,0,0,1,217.218,306.017)"><path stroke-miterlimit="10" stroke-width="5.41" stroke="#012f60" fill="#b6aace" d="M197.207,-218.217C176.824,-217.894,156.062,-214.151,135.032,-207.984C123.598,-217.326,111.195,-224.902,98.187,-230.699C95.509,-251.106,90.91,-270.596,85.224,-287.257C84.012,-290.807,80.228,-292.492,76.869,-290.971C52.628,-279.989,30.112,-263.408,8.673,-243.342C-25.176,-238.661,-57.858,-223.413,-84.048,-197.562C-111.534,-170.433,-203.693,-83.512,-203.692,258.378C-203.692,292.492,135.896,289.566,129.657,264.565C123.352,239.296,118.986,194.953,125.696,135.094C132.936,70.513,162.982,17.808,167.907,10.443C196.836,-32.813,203.025,-86.827,186.386,-134.713C195.853,-160.855,201.502,-188.09,203.392,-211.484C203.693,-215.223,200.894,-218.276,197.207,-218.217Z" /></g><g transform="matrix(1,0,0,1,176.054,429.825)"><path fill="#b6aace" d="M-128.612,147.502C-128.612,147.502,-130.157,136.827,-130.217,132.424C-131.025,73.273,-127.928,7.962,-109.854,-57.659C-91.906,-122.827,-23.473,-161.499,42.996,-144.04C109.464,-126.58,131.025,-60.694,117.682,5.569C106.552,60.838,110.296,106.353,113.311,147.92C113.49,150.384,112.433,149.388,113.06,151.753C115.033,159.204,-93.548,161.499,-128.612,147.502Z" /></g><g transform="matrix(1,0,0,1,357.722,104.998)"><path stroke-linejoin="round" stroke-linecap="round" stroke-width="5.41" stroke="#012f60" d="M-8.346,-9.114C-3.996,-5.47,5.354,3.33,8.346,9.114" /></g><g transform="matrix(1,0,0,1,340.925,444.67)"><path stroke-linejoin="round" stroke-linecap="round" stroke-width="5.41" stroke="#012f60" fill="#b6aace" d="M14.122,-60.339C11.571,-42.836,20.666,-7.897,31.692,22.797C35.963,34.685,21.182,60.338,-2.781,35.497C-18.015,19.707,-29.772,-12.688,-35.963,-33.344" /></g></g><g opacity="0" display="none"><animate repeatCount="indefinite" begin="0s" calcMode="discrete" dur="6.5s" values="none; inline; inline" keyTimes="0; 0.01; 1" attributeName="display" /><animate repeatCount="indefinite" attributeName="opacity" dur="6.5s" begin="0s" fill="freeze" values="0; 0; 1; 1; 0; 0" keyTimes="0; 0.184615; 0.189744; 0.25641; 0.266667; 1" keySplines="0 0 1 1; 0 0 1 1; 0 0 1 1; 0 0 1 1; 0 0 1 1" calcMode="spline" /><g transform="translate(518.921,374.944) scale(1,1) translate(-27.748,-31.141)"><g transform="matrix(1,0,0,1,27.748,28.803)"><path stroke-linejoin="round" stroke-linecap="round" stroke-width="5.41" stroke="#012f60" fill="#ffc300" d="M14.223,4.346C14.223,4.346,-4.935,-1.882,-14.223,-4.346" /></g><g transform="matrix(1,0,0,1,12.186,51.297)"><path stroke-linejoin="round" stroke-linecap="round" stroke-width="5.41" stroke="#012f60" fill="#ffc300" d="M8.673,8.279C8.673,8.279,-8.673,-8.279,-8.673,-8.279" /></g><g transform="matrix(1,0,0,1,31.161,3.441)"><path stroke-linejoin="round" stroke-linecap="round" stroke-width="5.41" stroke="#012f60" fill="#ffc300" d="M13.358,0.735C13.358,0.735,-13.358,-0.735,-13.358,-0.735" /></g></g></g><g transform="matrix(1.228,0,0,1.228,-292.166,-297.189)" display="none"><animate repeatCount="indefinite" begin="0s" calcMode="discrete" dur="6.5s" values="none; inline; inline" keyTimes="0; 0.01; 1" attributeName="display" /><g transform="matrix(1,0,0,1,251.392,399.027)"><path d="" /></g><g transform="matrix(1,0,0,1,579.243,503.471)"><path stroke-linejoin="round" stroke-linecap="round" stroke-width="6.689" stroke="#012f60" d="M-30.035,-17.365C-1.701,-26.607,27.875,-6.988,28.034,21.607" /></g></g><g transform="matrix(1,0,0,1,204.825,159.516)" display="none"><animate repeatCount="indefinite" begin="0s" calcMode="discrete" dur="6.5s" values="none; inline; inline" keyTimes="0; 0.01; 1" attributeName="display" /><g transform="matrix(1,0,0,1,218.266,154.663)"><path stroke-miterlimit="10" stroke-width="5.139" stroke="#012f60" fill="#ffffff" d="M51.338,5.116C50.352,14.603,45.301,23.354,40.015,30.507C29.529,44.698,13.57,52.994,-5.249,51.036C-18.767,49.63,-30.518,43.116,-38.787,33.612C-47.832,23.215,-52.709,9.237,-51.17,-5.551C-49.747,-19.221,-42.97,-29.536,-33.291,-37.818C-22.928,-46.685,-9.219,-52.994,5.418,-51.471C20.551,-49.896,33.47,-41.922,41.767,-30.517C48.989,-20.587,52.709,-8.058,51.338,5.116Z" /></g></g><g transform="matrix(1,0,0,1,204.825,159.516)" display="none"><animate repeatCount="indefinite" begin="0s" calcMode="discrete" dur="6.5s" values="none; inline; inline" keyTimes="0; 0.01; 1" attributeName="display" /><g transform="matrix(1,0,0,1,69.013,69.314)"><path stroke-miterlimit="10" stroke-width="5.41" stroke="#012f60" fill="#ffffff" d="M54.045,5.386C53.006,15.373,47.69,24.585,42.125,32.115C31.086,47.054,14.286,55.789,-5.526,53.728C-19.757,52.247,-32.128,45.39,-40.832,35.385C-50.354,24.439,-55.488,9.725,-53.868,-5.843C-52.371,-20.234,-45.236,-31.093,-35.047,-39.812C-24.138,-49.147,-9.705,-55.789,5.703,-54.186C21.634,-52.528,35.234,-44.134,43.969,-32.126C51.572,-21.674,55.488,-8.483,54.045,5.386Z" /></g></g><g transform="matrix(1,0,0,1,247.118,191.101)" display="none"><animate repeatCount="indefinite" begin="0s" calcMode="discrete" dur="6.5s" values="none; inline; inline" keyTimes="0; 0.01; 1" attributeName="display" /><g transform="matrix(1,0,0,1,30.112,39.43)"><path fill="#012f60" d="M-2.403,-26.585C-9.096,-20.492,-21.722,-2.537,-26.42,13.882C-29.862,25.914,-20.092,39.18,-5.645,28.539C7.513,18.848,18.368,-3.981,20.542,-8.996C29.862,-30.479,11.432,-39.18,-2.403,-26.585Z" /></g></g><g transform="matrix(1,0,0,1,397.127,278.028)" display="none"><animate repeatCount="indefinite" begin="0s" calcMode="discrete" dur="6.5s" values="none; inline; inline" keyTimes="0; 0.01; 1" attributeName="display" /><g transform="matrix(1,0,0,1,28.615,37.467)"><path fill="#012f60" d="M-2.282,-25.253C-8.639,-19.465,-20.635,-2.409,-25.096,13.187C-28.366,24.616,-19.085,37.217,-5.361,27.109C7.137,17.904,17.448,-3.781,19.515,-8.545C28.366,-28.952,10.86,-37.217,-2.282,-25.253Z" /></g></g><g display="none"><animate repeatCount="indefinite" begin="0s" calcMode="discrete" dur="6.5s" values="none; inline; inline" keyTimes="0; 0.01; 1" attributeName="display" /><g transform="translate(158.188,378.928)"><g transform="rotate(8.278)"><animateTransform repeatCount="indefinite" type="rotate" attributeName="transform" dur="6.5s" begin="0s" calcMode="spline" values="8.278; 8.278; -19.514; 8.278; -19.514; -19.514" keyTimes="0; 0.246154; 0.323077; 0.394872; 0.471795; 1" keySplines="0 0 1 1; 0 0 1 1; 0 0 1 1; 0 0 1 1; 0 0 1 1" fill="freeze" /><g transform="scale(1,1) translate(-60.831,-148.903)"><g transform="matrix(1,0,0,1,52.064,84.946)"><path fill="#ac9cce" d="M-31.743,71.421C-40.071,23.072,-38.539,-21.336,-37.236,-48.27C-36.602,-61.339,-25.494,-71.421,-12.422,-70.792C0.649,-70.159,7.237,-58.747,10.101,-45.978C15.947,-19.911,29.373,32.715,40.071,65.028C40.071,65.028,-31.743,71.421,-31.743,71.421Z" /></g><g transform="matrix(1,0,0,1,36.173,50.016)"><path fill="#ac9cce" d="M14.594,-1.277C15.222,5.898,9.198,12.286,1.137,12.992C-6.923,13.697,-13.966,8.452,-14.594,1.277C-15.222,-5.898,-9.198,-12.287,-1.137,-12.992C6.923,-13.697,13.966,-8.452,14.594,-1.277Z" /></g><g transform="matrix(1,0,0,1,37.229,29.63)"><path fill="#ac9cce" d="M5.508,-0.482C5.745,2.226,3.47,4.637,0.428,4.903C-2.613,5.169,-5.271,3.19,-5.508,0.482C-5.745,-2.226,-3.471,-4.637,-0.43,-4.903C2.612,-5.169,5.271,-3.19,5.508,-0.482Z" /></g><g transform="matrix(1,0,0,1,24.813,33.794)"><path fill="#ac9cce" d="M4.295,-2.046C5.301,0.065,4.192,2.693,1.82,3.823C-0.551,4.952,-3.289,4.156,-4.295,2.045C-5.301,-0.067,-4.193,-2.694,-1.821,-3.823C0.55,-4.953,3.289,-4.157,4.295,-2.046Z" /></g><g transform="matrix(1,0,0,1,49.419,34.637)"><path fill="#ac9cce" d="M4.021,2.54C2.772,4.518,-0.041,4.983,-2.262,3.58C-4.483,2.177,-5.27,-0.564,-4.021,-2.541C-2.772,-4.518,0.041,-4.983,2.262,-3.58C4.483,-2.177,5.27,0.563,4.021,2.54Z" /></g><g transform="matrix(1,0,0,1,53.272,84.988)"><path stroke-linejoin="round" stroke-linecap="round" stroke-width="5.41" stroke="#012f60" d="M-31.061,71.378C-35.998,30.186,-39.305,-21.291,-38.001,-48.226C-37.368,-61.294,-26.261,-71.377,-13.188,-70.748C-0.118,-70.115,6.471,-58.703,9.334,-45.934C15.181,-19.866,21.755,20.657,39.305,47.378" /></g></g></g></g></g><g display="none"><animate repeatCount="indefinite" begin="0s" calcMode="discrete" dur="6.5s" values="none; inline; inline" keyTimes="0; 0.01; 1" attributeName="display" /><g transform="translate(341.5,287.75) rotate(33.597)"><g transform="scale(0.989,0.989)"><animateTransform repeatCount="indefinite" type="scale" attributeName="transform" dur="6.5s" begin="0s" calcMode="spline" values="0.989 0.989; 0.989 0.989; 0.989 0.499; 0.989 0.947; 0.989 0.466; 0.989 0.922; 0.989 0.533; 0.989 0.854; 0.989 0.854" keyTimes="0; 0.010256; 0.087179; 0.164102; 0.241025; 0.317949; 0.4; 0.476923; 1" keySplines="0 0 1 1; 0 0 1 1; 0 0 1 1; 0 0 1 1; 0 0 1 1; 0 0 1 1; 0 0 1 1; 0 0 1 1" fill="freeze" /><g transform="translate(-283.596,-419.231)"><g transform="matrix(1,0,0,1,251.392,399.027)"><path fill="#ff6470" d="M0.037,0.1C0.024,0.02,0.003,-0.049,-0.036,-0.1C-0.011,-0.031,0.013,0.033,0.037,0.1Z" /></g><g transform="matrix(1,0,0,1,283.761,436.377)"><path fill="#ff6470" d="M13.134,-8.083C13.104,-8.598,7.608,-10.881,7.143,-11.18C2.229,-14.339,1.23,-16.771,-0.183,-20.66C-0.022,-19.698,-1.592,-16.816,-1.894,-16.235C-2.703,-14.678,-3.746,-13.28,-4.955,-12.002C-6.523,-10.346,-13.28,-10.401,-13.28,-10.401C-14.779,18.638,14.779,20.66,13.134,-8.083Z" /></g><g transform="matrix(1,0,0,1,579.243,503.471)"><path d="" /></g></g></g></g></g><g transform="matrix(1,0,0,1,310.86,267.774)" display="none"><animate repeatCount="indefinite" begin="0s" calcMode="discrete" dur="6.5s" values="none; inline; inline" keyTimes="0; 0.01; 1" attributeName="display" /><g transform="matrix(1,0,0,1,29.098,23.325)"><path stroke-linejoin="round" stroke-linecap="round" stroke-width="5.177" stroke="#012f60" d="M-16.155,-10.383C-10.929,1.146,2.572,-4.645,3.589,-6.835C1.553,2.362,8.89,10.383,16.155,9.755" /></g></g></g></g></g></g></g></g></g><g transform="matrix(1.499,0,0,1.499,600,630.999)" display="none" id="i23"><animate repeatCount="indefinite" begin="0s" calcMode="discrete" dur="6.5s" values="none; inline; inline" keyTimes="0; 0.004872; 1" attributeName="display" /><g id="i24"><path d="" /></g></g><g transform="matrix(1.499,0,0,1.499,600,630.999)" display="none" id="i25"><animate repeatCount="indefinite" begin="0s" calcMode="discrete" dur="6.5s" values="none; inline; inline" keyTimes="0; 0.004872; 1" attributeName="display" /><g id="i24"><path stroke-width="6" stroke="#012f60" d="" /></g></g><g transform="matrix(1.499,0,0,1.499,141.364,478.12)" display="none" id="i26"><animate repeatCount="indefinite" begin="0s" calcMode="discrete" dur="6.5s" values="none; inline; inline" keyTimes="0; 0.004872; 1" attributeName="display" /><g id="i7" transform="matrix(1,0,0,1,297.926,429.64)"><path stroke-linejoin="round" stroke-linecap="round" stroke-width="5" stroke="#012f60" d="M-212.656,-18.237C-212.656,1.908,-118.551,18.238,0,18.238C118.552,18.238,212.656,1.908,212.656,-18.237" /></g></g></svg>